<svg width="100%" height="100%" xmlns="http://www.w3.org/2000/svg" xmlns:xlink="http://www.w3.org/1999/xlink">

  <defs>
    <pattern  id="pattern" patternTransform="rotate(0) scale(1)" x="0" y="0" width="385" height="385" patternUnits="userSpaceOnUse">
      <rect fill="#ddd" fill-opacity="0.08" width="18" height="385" x="6" y="0"/>
      <rect fill="#ddd" fill-opacity="0.04" width="24" height="385" x="40" y="0"/>
      <rect fill="#ddd" fill-opacity="0.03" width="26" height="385" x="77" y="0"/>
      <rect fill="#222" fill-opacity="0.1" width="15" height="385" x="106" y="0"/>
      <rect fill="#ddd" fill-opacity="0.09" width="22" height="385" x="147" y="0"/>
      <rect fill="#ddd" fill-opacity="0.06" width="14" height="385" x="180" y="0"/>
      <rect fill="#222" fill-opacity="0.06" width="14" height="385" x="216" y="0"/>
      <rect fill="#222" fill-opacity="0.1" width="28" height="385" x="252" y="0"/>
      <rect fill="#222" fill-opacity="0.14" width="23" height="385" x="281" y="0"/>
      <rect fill="#ddd" fill-opacity="0.06" width="22" height="385" x="316" y="0"/>
      <rect fill="#ddd" fill-opacity="0.04" width="17" height="385" x="351" y="0"/>
      <rect fill="#ddd" fill-opacity="0.06" width="385" height="20" x="0" y="3"/>
      <rect fill="#ddd" fill-opacity="0.09" width="385" height="16" x="0" y="41"/>
      <rect fill="#ddd" fill-opacity="0.04" width="385" height="27" x="0" y="73"/>
      <rect fill="#ddd" fill-opacity="0.11" width="385" height="22" x="0" y="108"/>
      <rect fill="#ddd" fill-opacity="0.09" width="385" height="22" x="0" y="143"/>
      <rect fill="#222" fill-opacity="0.02" width="385" height="20" x="0" y="177"/>
      <rect fill="#222" fill-opacity="0.08" width="385" height="23" x="0" y="217"/>
      <rect fill="#ddd" fill-opacity="0.1" width="385" height="15" x="0" y="247"/>
      <rect fill="#ddd" fill-opacity="0.1" width="385" height="25" x="0" y="283"/>
      <rect fill="#222" fill-opacity="0.06" width="385" height="20" x="0" y="315"/>
      <rect fill="#ddd" fill-opacity="0.04" width="385" height="20" x="0" y="351"/>

    </pattern>
  </defs>
  <rect fill="#37657a" height="100%" width="100%" x="0" y="0" />
  <rect fill="url(#pattern)" height="100%" width="100%" x="0" y="0"/>
</svg>
