<svg width="100%" height="100%" xmlns="http://www.w3.org/2000/svg" xmlns:xlink="http://www.w3.org/1999/xlink">

  <defs>
    <pattern  id="pattern" patternTransform="rotate(0) scale(1)" x="0" y="0" width="280" height="315" patternUnits="userSpaceOnUse">
      <rect fill="#222" fill-opacity="0.04" width="23" height="315" x="4" y="0"/>
      <rect fill="#222" fill-opacity="0.06" width="23" height="315" x="38" y="0"/>
      <rect fill="#ddd" fill-opacity="0.06" width="20" height="315" x="70" y="0"/>
      <rect fill="#222" fill-opacity="0.13" width="22" height="315" x="106" y="0"/>
      <rect fill="#222" fill-opacity="0.09" width="17" height="315" x="145" y="0"/>
      <rect fill="#222" fill-opacity="0.1" width="17" height="315" x="180" y="0"/>
      <rect fill="#ddd" fill-opacity="0.04" width="22" height="315" x="212" y="0"/>
      <rect fill="#222" fill-opacity="0.04" width="20" height="315" x="245" y="0"/>
      <rect fill="#ddd" fill-opacity="0.13" width="280" height="14" x="0" y="7"/>
      <rect fill="#222" fill-opacity="0.04" width="280" height="22" x="0" y="36"/>
      <rect fill="#ddd" fill-opacity="0.12" width="280" height="21" x="0" y="70"/>
      <rect fill="#222" fill-opacity="0.13" width="280" height="25" x="0" y="109"/>
      <rect fill="#ddd" fill-opacity="0.12" width="280" height="21" x="0" y="143"/>
      <rect fill="#ddd" fill-opacity="0.04" width="280" height="25" x="0" y="180"/>
      <rect fill="#222" fill-opacity="0.06" width="280" height="25" x="0" y="217"/>
      <rect fill="#ddd" fill-opacity="0.11" width="280" height="19" x="0" y="250"/>
      <rect fill="#ddd" fill-opacity="0.06" width="280" height="26" x="0" y="280"/>

    </pattern>
  </defs>
  <rect fill="#7c3b72" height="100%" width="100%" x="0" y="0" />
  <rect fill="url(#pattern)" height="100%" width="100%" x="0" y="0"/>
</svg>
