<svg width="100%" height="100%" xmlns="http://www.w3.org/2000/svg" xmlns:xlink="http://www.w3.org/1999/xlink">

  <defs>
    <pattern  id="pattern" patternTransform="rotate(0) scale(1)" x="0" y="0" width="350" height="385" patternUnits="userSpaceOnUse">
      <rect fill="#222" fill-opacity="0.09" width="24" height="385" x="7" y="0"/>
      <rect fill="#ddd" fill-opacity="0.09" width="19" height="385" x="36" y="0"/>
      <rect fill="#222" fill-opacity="0.02" width="23" height="385" x="77" y="0"/>
      <rect fill="#ddd" fill-opacity="0.05" width="14" height="385" x="112" y="0"/>
      <rect fill="#222" fill-opacity="0.14" width="28" height="385" x="141" y="0"/>
      <rect fill="#ddd" fill-opacity="0.07" width="18" height="385" x="181" y="0"/>
      <rect fill="#ddd" fill-opacity="0.14" width="20" height="385" x="212" y="0"/>
      <rect fill="#ddd" fill-opacity="0.1" width="17" height="385" x="247" y="0"/>
      <rect fill="#ddd" fill-opacity="0.05" width="18" height="385" x="280" y="0"/>
      <rect fill="#222" fill-opacity="0.07" width="16" height="385" x="321" y="0"/>
      <rect fill="#ddd" fill-opacity="0.1" width="350" height="20" x="0" y="7"/>
      <rect fill="#222" fill-opacity="0.03" width="350" height="16" x="0" y="36"/>
      <rect fill="#222" fill-opacity="0.03" width="350" height="15" x="0" y="76"/>
      <rect fill="#ddd" fill-opacity="0.04" width="350" height="16" x="0" y="109"/>
      <rect fill="#ddd" fill-opacity="0.05" width="350" height="28" x="0" y="143"/>
      <rect fill="#ddd" fill-opacity="0.02" width="350" height="19" x="0" y="176"/>
      <rect fill="#222" fill-opacity="0.08" width="350" height="14" x="0" y="217"/>
      <rect fill="#222" fill-opacity="0.13" width="350" height="27" x="0" y="247"/>
      <rect fill="#ddd" fill-opacity="0.01" width="350" height="23" x="0" y="282"/>
      <rect fill="#ddd" fill-opacity="0.09" width="350" height="16" x="0" y="321"/>
      <rect fill="#222" fill-opacity="0.12" width="350" height="22" x="0" y="354"/>

    </pattern>
  </defs>
  <rect fill="#444f85" height="100%" width="100%" x="0" y="0" />
  <rect fill="url(#pattern)" height="100%" width="100%" x="0" y="0"/>
</svg>
