<svg width="100%" height="100%" xmlns="http://www.w3.org/2000/svg" xmlns:xlink="http://www.w3.org/1999/xlink">

  <defs>
    <pattern  id="pattern" patternTransform="rotate(0) scale(1)" x="0" y="0" width="315" height="245" patternUnits="userSpaceOnUse">
      <rect fill="#ddd" fill-opacity="0.12" width="15" height="245" x="4" y="0"/>
      <rect fill="#222" fill-opacity="0.06" width="23" height="245" x="42" y="0"/>
      <rect fill="#222" fill-opacity="0.12" width="17" height="245" x="73" y="0"/>
      <rect fill="#222" fill-opacity="0.1" width="23" height="245" x="110" y="0"/>
      <rect fill="#222" fill-opacity="0.09" width="14" height="245" x="142" y="0"/>
      <rect fill="#222" fill-opacity="0.1" width="14" height="245" x="180" y="0"/>
      <rect fill="#222" fill-opacity="0.07" width="21" height="245" x="217" y="0"/>
      <rect fill="#222" fill-opacity="0.06" width="22" height="245" x="245" y="0"/>
      <rect fill="#ddd" fill-opacity="0.02" width="24" height="245" x="286" y="0"/>
      <rect fill="#ddd" fill-opacity="0.02" width="315" height="19" x="0" y="3"/>
      <rect fill="#222" fill-opacity="0.11" width="315" height="27" x="0" y="37"/>
      <rect fill="#ddd" fill-opacity="0.03" width="315" height="28" x="0" y="73"/>
      <rect fill="#ddd" fill-opacity="0.12" width="315" height="21" x="0" y="111"/>
      <rect fill="#ddd" fill-opacity="0.04" width="315" height="24" x="0" y="147"/>
      <rect fill="#222" fill-opacity="0.02" width="315" height="27" x="0" y="175"/>
      <rect fill="#ddd" fill-opacity="0.13" width="315" height="21" x="0" y="212"/>

    </pattern>
  </defs>
  <rect fill="#763678" height="100%" width="100%" x="0" y="0" />
  <rect fill="url(#pattern)" height="100%" width="100%" x="0" y="0"/>
</svg>
