<svg width="100%" height="100%" xmlns="http://www.w3.org/2000/svg" xmlns:xlink="http://www.w3.org/1999/xlink">

  <defs>
    <polyline id="tile" stroke="#000" stroke-opacity="0.04" points="30,0,15,25.98,-15,25.98,-30,0,-15,-25.98,15,-25.98" />
    <pattern  id="pattern" patternTransform="rotate(0) scale(1)" x="0" y="0" width="450" height="207.84" patternUnits="userSpaceOnUse">
        <use href="#tile" fill="#222" fill-opacity="0.1" transform="translate(0,0) "/>
        <use href="#tile" fill="#222" fill-opacity="0.1" transform="translate(0,207.84) "/>
        <use href="#tile" fill="#222" fill-opacity="0.1" transform="translate(450,0) "/>
        <use href="#tile" fill="#222" fill-opacity="0.1" transform="translate(450,207.84) "/>
        <use href="#tile" fill="#222" fill-opacity="0.13" transform="translate(0,25.98) translate(45,0)"/>
        <use href="#tile" fill="#222" fill-opacity="0.13" transform="translate(450,25.98) translate(45,0)"/>
        <use href="#tile" fill="#ddd" fill-opacity="0.01" transform="translate(0,51.96) "/>
        <use href="#tile" fill="#ddd" fill-opacity="0.01" transform="translate(450,51.96) "/>
        <use href="#tile" fill="#222" fill-opacity="0.07" transform="translate(0,77.94) translate(45,0)"/>
        <use href="#tile" fill="#222" fill-opacity="0.07" transform="translate(450,77.94) translate(45,0)"/>
        <use href="#tile" fill="#222" fill-opacity="0.05" transform="translate(0,103.92) "/>
        <use href="#tile" fill="#222" fill-opacity="0.05" transform="translate(450,103.92) "/>
        <use href="#tile" fill="#ddd" fill-opacity="0.12" transform="translate(0,129.9) translate(45,0)"/>
        <use href="#tile" fill="#ddd" fill-opacity="0.12" transform="translate(450,129.9) translate(45,0)"/>
        <use href="#tile" fill="#ddd" fill-opacity="0.05" transform="translate(0,155.88) "/>
        <use href="#tile" fill="#ddd" fill-opacity="0.05" transform="translate(450,155.88) "/>
        <use href="#tile" fill="#ddd" fill-opacity="0.1" transform="translate(0,181.86) translate(45,0)"/>
        <use href="#tile" fill="#ddd" fill-opacity="0.1" transform="translate(450,181.86) translate(45,0)"/>
        <use href="#tile" fill="#ddd" fill-opacity="0.13" transform="translate(90,0) "/>
        <use href="#tile" fill="#ddd" fill-opacity="0.13" transform="translate(90,207.84) "/>
        <use href="#tile" fill="#ddd" fill-opacity="0.1" transform="translate(90,25.98) translate(45,0)"/>
        <use href="#tile" fill="#222" fill-opacity="0.13" transform="translate(90,51.96) "/>
        <use href="#tile" fill="#222" fill-opacity="0.07" transform="translate(90,77.94) translate(45,0)"/>
        <use href="#tile" fill="#ddd" fill-opacity="0.13" transform="translate(90,103.92) "/>
        <use href="#tile" fill="#222" fill-opacity="0.1" transform="translate(90,129.9) translate(45,0)"/>
        <use href="#tile" fill="#222" fill-opacity="0.14" transform="translate(90,155.88) "/>
        <use href="#tile" fill="#ddd" fill-opacity="0.08" transform="translate(90,181.86) translate(45,0)"/>
        <use href="#tile" fill="#222" fill-opacity="0.13" transform="translate(180,0) "/>
        <use href="#tile" fill="#222" fill-opacity="0.13" transform="translate(180,207.84) "/>
        <use href="#tile" fill="#ddd" fill-opacity="0.02" transform="translate(180,25.98) translate(45,0)"/>
        <use href="#tile" fill="#222" fill-opacity="0.02" transform="translate(180,51.96) "/>
        <use href="#tile" fill="#222" fill-opacity="0.07" transform="translate(180,77.94) translate(45,0)"/>
        <use href="#tile" fill="#ddd" fill-opacity="0.11" transform="translate(180,103.92) "/>
        <use href="#tile" fill="#ddd" fill-opacity="0.1" transform="translate(180,129.9) translate(45,0)"/>
        <use href="#tile" fill="#ddd" fill-opacity="0.13" transform="translate(180,155.88) "/>
        <use href="#tile" fill="#ddd" fill-opacity="0.08" transform="translate(180,181.86) translate(45,0)"/>
        <use href="#tile" fill="#222" fill-opacity="0.07" transform="translate(270,0) "/>
        <use href="#tile" fill="#222" fill-opacity="0.07" transform="translate(270,207.84) "/>
        <use href="#tile" fill="#222" fill-opacity="0.05" transform="translate(270,25.98) translate(45,0)"/>
        <use href="#tile" fill="#ddd" fill-opacity="0.03" transform="translate(270,51.96) "/>
        <use href="#tile" fill="#ddd" fill-opacity="0.02" transform="translate(270,77.94) translate(45,0)"/>
        <use href="#tile" fill="#222" fill-opacity="0.05" transform="translate(270,103.92) "/>
        <use href="#tile" fill="#222" fill-opacity="0.04" transform="translate(270,129.9) translate(45,0)"/>
        <use href="#tile" fill="#222" fill-opacity="0.04" transform="translate(270,155.88) "/>
        <use href="#tile" fill="#222" fill-opacity="0.13" transform="translate(270,181.86) translate(45,0)"/>
        <use href="#tile" fill="#ddd" fill-opacity="0.12" transform="translate(360,0) "/>
        <use href="#tile" fill="#ddd" fill-opacity="0.12" transform="translate(360,207.84) "/>
        <use href="#tile" fill="#ddd" fill-opacity="0.13" transform="translate(360,25.98) translate(45,0)"/>
        <use href="#tile" fill="#222" fill-opacity="0.08" transform="translate(360,51.96) "/>
        <use href="#tile" fill="#222" fill-opacity="0.1" transform="translate(360,77.94) translate(45,0)"/>
        <use href="#tile" fill="#ddd" fill-opacity="0.11" transform="translate(360,103.92) "/>
        <use href="#tile" fill="#ddd" fill-opacity="0.03" transform="translate(360,129.9) translate(45,0)"/>
        <use href="#tile" fill="#ddd" fill-opacity="0.1" transform="translate(360,155.88) "/>
        <use href="#tile" fill="#ddd" fill-opacity="0.05" transform="translate(360,181.86) translate(45,0)"/>
    </pattern>
  </defs>
  <rect fill="#7c3f51" height="100%" width="100%" x="0" y="0" />
  <rect fill="url(#pattern)" height="100%" width="100%" x="0" y="0"/>
</svg>
