<svg width="100%" height="100%" xmlns="http://www.w3.org/2000/svg" xmlns:xlink="http://www.w3.org/1999/xlink">

  <defs>
    <polyline id="tile" stroke="#000" stroke-opacity="0.04" points="35,14.5,14.5,35,-14.5,35,-35,14.5,-35,-14.5,-14.5,-35,14.5,-35,35,-14.5"/>
    <pattern  id="pattern" patternTransform="rotate(0) scale(1)" x="0" y="0" width="280" height="280" patternUnits="userSpaceOnUse">
        <use href="#tile" fill="#222" fill-opacity="0.107" transform="translate(0,0)"/>
        <use href="#tile" fill="#222" fill-opacity="0.107" transform="translate(0,280)"/>
        <use href="#tile" fill="#222" fill-opacity="0.107" transform="translate(280,0)"/>
        <use href="#tile" fill="#222" fill-opacity="0.107" transform="translate(280,280)"/>
        <use href="#tile" fill="#222" fill-opacity="0.036" transform="translate(0,70)"/>
        <use href="#tile" fill="#222" fill-opacity="0.036" transform="translate(280,70)"/>
        <use href="#tile" fill="#ddd" fill-opacity="0.105" transform="translate(0,140)"/>
        <use href="#tile" fill="#ddd" fill-opacity="0.105" transform="translate(280,140)"/>
        <use href="#tile" fill="#ddd" fill-opacity="0.047" transform="translate(0,210)"/>
        <use href="#tile" fill="#ddd" fill-opacity="0.047" transform="translate(280,210)"/>
        <use href="#tile" fill="#ddd" fill-opacity="0.044" transform="translate(70,0)"/>
        <use href="#tile" fill="#ddd" fill-opacity="0.044" transform="translate(70,280)"/>
        <use href="#tile" fill="#ddd" fill-opacity="0.05" transform="translate(70,70)"/>
        <use href="#tile" fill="#222" fill-opacity="0.154" transform="translate(70,140)"/>
        <use href="#tile" fill="#222" fill-opacity="0.077" transform="translate(70,210)"/>
        <use href="#tile" fill="#ddd" fill-opacity="0.12" transform="translate(140,0)"/>
        <use href="#tile" fill="#ddd" fill-opacity="0.12" transform="translate(140,280)"/>
        <use href="#tile" fill="#222" fill-opacity="0.151" transform="translate(140,70)"/>
        <use href="#tile" fill="#222" fill-opacity="0.037" transform="translate(140,140)"/>
        <use href="#tile" fill="#222" fill-opacity="0.132" transform="translate(140,210)"/>
        <use href="#tile" fill="#222" fill-opacity="0.098" transform="translate(210,0)"/>
        <use href="#tile" fill="#222" fill-opacity="0.098" transform="translate(210,280)"/>
        <use href="#tile" fill="#ddd" fill-opacity="0.079" transform="translate(210,70)"/>
        <use href="#tile" fill="#ddd" fill-opacity="0.12" transform="translate(210,140)"/>
        <use href="#tile" fill="#222" fill-opacity="0.029" transform="translate(210,210)"/>
    </pattern>
  </defs>
  <rect fill="#36723a" height="100%" width="100%" x="0" y="0" />
  <rect fill="url(#pattern)" height="100%" width="100%" x="0" y="0"/>
</svg>
